<svg id="Layer_1" data-name="Layer 1" xmlns="http://www.w3.org/2000/svg" viewBox="0 0 128 128"><defs><style>.cls-1{fill:none;}.cls-2{fill:#231f20;}.cls-3{fill:#fff;}</style></defs><title>FB Block</title><rect class="cls-1" width="128" height="128"/><rect class="cls-2" x="14" y="16.11" width="96" height="60" rx="4.47" transform="translate(-4.73 7.16) rotate(-6.37)"/><path class="cls-2" d="M61.33,75.81h12a0,0,0,0,1,0,0v33.52a2.48,2.48,0,0,1-2.48,2.48h-7a2.48,2.48,0,0,1-2.48-2.48V75.81A0,0,0,0,1,61.33,75.81Z" transform="translate(-9.99 8.05) rotate(-6.37)"/><path class="cls-3" d="M47.43,64.84l-7,.79L38.51,48.76,36,49c-.87.1-.87.1-1-.78l-.52-4.64-.05-.46,3.33-.37c0-.19,0-.33-.05-.48-.14-1.44-.36-2.87-.4-4.31-.09-3.12,1.45-6,5.15-6.72,2.08-.41,4.2-.54,6.3-.79l.06,0,.64,5.76-.39,0-3.26.37a1.37,1.37,0,0,0-1.4,1.54c.07,1.24.26,2.47.4,3.74l5.33-.59c0,.38,0,.72,0,1.06,0,1.57,0,3.14,0,4.71,0,.28-.14.32-.35.34L46,47.93l-.49,0Z"/><path class="cls-3" d="M79,27.11a17,17,0,1,0,18.78,15A17,17,0,0,0,79,27.11Zm3.33,29.81A13,13,0,1,1,93.81,42.56,13,13,0,0,1,82.33,56.92Z"/><path class="cls-3" d="M89.85,29.58,68.79,55.93a17.18,17.18,0,0,0,3.13,2.5L93,32.07A16.72,16.72,0,0,0,89.85,29.58Z"/></svg>